<svg xmlns="http://www.w3.org/2000/svg" viewBox="0 0 1000 1000" fill="white" class="h-20 w-20 md:h-24 md:w-24 lg:h-32 lg:w-32"><path d="M504.73,934.88c-116.16,0-225.37-45.23-307.51-127.37C115.09,725.38,69.85,616.16,69.85,500 c0-116.16,45.24-225.37,127.38-307.51c82.14-82.14,191.35-127.38,307.51-127.38s225.37,45.23,307.51,127.38 C894.39,274.63,939.62,383.84,939.62,500c0,116.16-45.23,225.37-127.38,307.51C730.11,889.65,620.9,934.88,504.73,934.88 M504.73,80.27c-112.11,0-217.51,43.66-296.79,122.94C128.67,282.48,85.01,387.89,85.01,500s43.66,217.51,122.94,296.79 c79.27,79.28,184.67,122.94,296.79,122.94c112.12,0,217.52-43.66,296.79-122.94C880.8,717.52,924.46,612.11,924.46,500 S880.8,282.48,801.53,203.21C722.25,123.93,616.85,80.27,504.73,80.27"></path><path d="M504.74,818.76c-85.14,0-165.19-33.15-225.4-93.36c-60.2-60.21-93.36-140.25-93.36-225.4c0-85.14,33.16-165.19,93.36-225.4 c60.21-60.21,140.26-93.36,225.4-93.36c85.14,0,165.19,33.15,225.4,93.36c60.2,60.21,93.36,140.25,93.36,225.4 c0,85.15-33.16,165.19-93.36,225.4C669.92,785.6,589.88,818.76,504.74,818.76 M504.74,188.66c-171.68,0-311.35,139.67-311.35,311.34 c0,171.68,139.67,311.34,311.35,311.34c171.67,0,311.34-139.66,311.34-311.34C816.08,328.33,676.41,188.66,504.74,188.66"></path><path d="M671.32,664.34c1.35,36.67,68.85,29.04,67.74-1.29C737.79,628.68,670.27,635.93,671.32,664.34"></path><path d="M646.45,687.42c-0.14-0.01-0.26,0-0.4-0.02c-0.86-43.65,3.97-91.72,10.06-136.26c2.09-15.22,5.56-30.21,10.43-44.78 c2.75-8.21,6.09-17.96,10.05-29.23c0.98-2.43,2-3.46,3.08-3.1c1.08,0.36,1.64,1.33,1.7,2.93c-1.6,33.64-6.76,75.99-8.57,114.21 c11.2-10.61,18.55-18.55,43.72-45.02c12.02-12.64,23.13-24.4,33.33-35.26c40.85-43.48,49.33-108.62,19.95-160.55 c-52.25-92.36-151.37-154.7-265.06-154.7c-106.57,0-200.35,54.77-254.73,137.71c-11.2,17.09-18.34,36.64-19.84,57.02 c-1.65,22.48,3.27,43.53,21.6,56.73c35.97,25.9,90.65,12.61,125.38-8.99c23.18-16.67,38.93-38.32,47.25-64.94 c7.04-20.15,3.16-55.03,2.34-77.45c0.39-11.04,2.53-23.25,6.43-36.62c1.46-5.03,10.48-38.16,16.73-38.39 c1.46-0.06,2.15,1.45,2.06,4.5c-0.63,22.18-0.08,44.6,0.36,66.78c-1.28,62.65-17.42,117.08-48.42,163.28 c-30.65,44.85-68.6,68.31-113.85,70.38c-69.19-0.58-84.63-51.75-78.56-107.36c-7.23,26.01-11.11,53.41-11.11,81.72 c0,91.52,40.4,173.59,104.33,229.38c3.51-2.86,7.01-5.69,10.44-8.33c43.36-36.85,61.99-61.59,92.65-109.87 c19.22-29.19,42.04-63.82,72.51-82.42c7.02-10.76,28.28-40.23,36.09-49.28c11.54-13.38,32.37-32.65,50.02-35.83 c6.6-0.59,13.94,4.87,16.93,4.77c11.07,1.16,18.44-13.33,22.72-21.98c6.4,4.29,12.02,1.75,16.87-7.6 c4.45-9.07,7.34-13.63,8.66-13.68c1.2-0.04,1.83,0.93,1.91,2.92c-1.28,10.37-3.49,19.84-7.48,29.58 c-5.15,12.18-16.26,22.1-29.63,23.82c-0.35,1.21-2.84,4.16-7.46,8.85c-5.21,5.15-10.74,9.2-17.13,9.06 c-6.32-0.13-8.87-3.92-17.16-3.62c-10.33,0.38-25.39,8.5-32.5,16.15c-0.04,0.03-0.08,0.04-0.12,0.06 c0.3,6.87,7.37,11.44,12.32,15.24c4.79,3.68,8.57,7.06,11.34,10.15c2.92,3.48,4.44,6.81,4.56,10c0.52,14.15-3.54,24.02-11.51,33.05 c-9.1,10.3-12.48,10.9-26.62,11.61c-7.5,0.38-23.17,1.26-46.62,13.48c-25.04,13.04-50.45,53.03-68.17,76.27 c-19.09,26.49-74.42,71.85-82.1,76.33c52.01,41.44,117.87,66.23,189.54,66.23c55.09,0,106.75-14.65,151.33-40.25 c9.2-5.29,11.53-17.51,4.8-25.71C650.16,725.36,647.07,704.3,646.45,687.42 M357.84,351.59l-3.3,6.38 c-4.15,6.95-12.24,17.99-17.74,18.2c-1.92,0.07-14.26-8.54-23.52-16.35l-5.18-4.6c-3.13-2.98-5.25-5.48-5.3-6.77 c4.43-9.74,8.25-18.52,12.23-27.19l3.08-6.58c3.69-7.76,7.67-15.61,12.52-24.16c6.72,5.07,15.28,10.34,22.01,16.75l4.69,5.12 c2.86,3.63,5.02,7.62,5.93,12.11C365.32,333.18,361.62,343.39,357.84,351.59 M400.66,590.13c-6.19,19.5-12.11,33.94-17.75,43.32 c-5.63,9.38-10.11,15.23-13.41,17.54c-10.82,7.57-32.97,14.68-45.55,19.22c-1.38,0.5-26.63,10.59-26.78,6.47 c-1.67-2.07,6.33-9.5,24-22.32c17.68-12.8,29.07-21.21,34.17-25.18c12.75-9.93,22.95-26.7,26.66-42.34 c-4.11-0.23-8.75,2.37-12.63,3.75c-11.76,4.23-31.36-6.53-29.87-20.74c3.69-18.24,14.82-43.51,25.27-58.35 c4.61-6.55,9.31-9.92,14.09-10.09c18.79-0.69,29.36,17.78,29.97,34.59C409.47,553.37,405.98,573.61,400.66,590.13 M599.05,396.21 c-2.43,5.05-12.11,20.01-18.25,20.23c-2.33,0.08-21.38-13.74-28.59-21.43c-1.31,4.91-3.43,9.71-5.39,13.78 c-2.43,5.05-12.11,20.01-18.26,20.23c-2.87,0.11-31.17-20.95-31.34-25.54c8.77-19.3,14.92-34.5,25.65-53.41 c10.94,8.26,27.21,17.06,30.08,31.33c0.1,0.42,0.12,0.87,0.19,1.29c3.03-6.78,5.86-13.18,8.82-19.55c-1.03,0.61-2.03,1-2.95,1.03 c-2.88,0.11-31.17-20.95-31.34-25.54c8.77-19.3,14.91-34.5,25.65-53.41c10.94,8.27,27.21,17.06,30.08,31.33 c1.79,7.56-1.17,16.4-4.44,23.72c10.57,7.5,23.67,15.86,26.22,28.53C607.29,377.68,602.85,388.32,599.05,396.21 M591.36,491.31 c10.94,8.26,27.21,17.06,30.07,31.33c2.11,8.86-2.33,19.5-6.13,27.38c-2.43,5.05-12.11,20.01-18.26,20.23 c-2.88,0.11-31.17-20.95-31.34-25.53C574.48,525.41,580.62,510.21,591.36,491.31 M629.2,678.81c-10.68,26.66-23.9,50.58-45.26,70.25 c-34.6,30.15-43.99,9.4-73.18,10.47c-14.38,0.53-24.95,8.34-34.63,18.22c-5.52,5.38-9.5,7.26-11.95,5.62 c-2.3-1.1-3.49-2.66-3.56-4.65c-0.32-8.72,25.88-45.13,31.98-52.02c17.57-22.11,38.58-37.88,68.43-31.22 c9.27,1.84,11.63,1.98,20.97-0.87c13.21-4.04,29.96-12.9,29.58-23.12c-0.14-3.79-9.19-10.53-12.64-13.09 c-16.73,10.87-40.79,7.67-41.64-15.42c-0.03-0.8,4.8-13.87,14.51-39.21c11-29.69,28.73-32.33,51.23-10.85 C646.49,616.19,639.62,651.14,629.2,678.81"></path><path d="M706.88,585.28c28.09-3.39,51.34,2.81,52.58,36.54c0.17,4.58,0.07,9.34-0.27,14.21c-0.63,8.93,11.45,12.38,15.59,4.44 C796.7,598.45,809.1,550.68,809.1,500c0-6.35-1.45-27.66-1.83-33.92C797.18,501.83,765.81,526.58,706.88,585.28"></path><path d="M328.03,197.3c1.37,3.46,3.27,9.4,3.68,12.11c-1.47,1.77-5.84,7.16-10.34,10.62c-15.65,11.99-30.55,7-37.73-2.38 c-9.57-12.49-5.75-28.42,8.32-39.2c5.19-3.97,10.66-5.91,12.58-6.93c3.07,2.99,5.47,5.21,8.41,8.29l-1.51,1.81 c-6.69-5.3-12.74-4.78-19.35,0.28c-10.34,7.93-9.46,20.5-2.69,29.34c8.58,11.19,21.15,13.4,30.68,6.1 c6.29-4.82,7.15-10.82,5.67-19.4L328.03,197.3z"></path><path d="M360.14,195.01c-1.24,0.72-2.99,0.96-4.1,0.66c-1.37-0.33-2.28-0.99-3.17-1.83c-1.69,3.21-3.44,7.34-5.29,8.41 c-4.91,2.83-10.39,0.8-12.73-3.28c-1.86-3.23-1.22-6.19,1.7-9.41c3.44-3.74,7.03-8.06,7.76-10.07l-0.66-1.15 c-2.68-4.65-6.23-5.9-9.37-4.09c-1.15,0.66-1.87,1.66-2.12,2.76c-0.35,1.33-0.09,3.12,0.53,5.53c0.26,1.38-0.18,2.23-1.21,2.82 c-1.28,0.73-3.77,0.4-4.67-1.14c-0.56-0.98-0.17-2.25,0.59-3.88c1.12-2.47,4.16-7.52,7.42-10.35c2.08-1.2,4.26-1.81,6.43-1.52 c3.61,0.64,5.87,2.93,7.86,6.38l6.7,11.64c1.66,2.88,3.37,3.19,4.56,2.5c0.76-0.43,1.46-1.26,1.94-2.06l1.65,1.35L360.14,195.01z M345.61,181.75c-0.94,1.43-2.89,4.2-3.9,5.61c-1.93,2.58-2.61,4.69-1.23,7.07c1.97,3.41,5.4,3.44,7.35,2.31 c1.55-0.89,3.11-3.08,3.6-4.9L345.61,181.75z"></path><path d="M357.31,159.06l-0.72-1.52c-1.02-2.18-1.59-4.1-1.82-5.8c-0.26-1.74-0.6-5.59,1.72-10.51c1.41-3.26,3.29-5.61,5.96-7.26 c2.47-1.1,4.87-1.05,6.63-0.3c1.1,0.44,1.59,1.34,1.59,2.42c-0.02,0.68-0.22,1.46-0.63,2.27c-0.48,0.9-1.08,1.18-2.05,0.8 c-2.02-0.69-4.68-1.08-6.9-0.03c-1.75,0.82-2.38,2.14-2.56,3.69c-0.22,1.57,0.57,5.04,3.37,10.66l1.32,2.82l8.13-3.82 c0.7,0.41,1.21,2.32,0.59,3.17l-7.39,3.48l8.99,19.13c2.34,4.99,3.01,4.97,8.63,3l0.82,1.76l-16.73,7.86l-0.85-1.8 c4.15-2.46,4.51-3.13,2.42-7.57l-9.21-19.6l-4.85,2.28l-0.7-0.63l0.99-2.95L357.31,159.06z"></path><path d="M409.5,165.67c-2.43,7.51-7.08,10.66-9.38,11.52c-8.76,3.27-16.55-1.83-19.46-9.63c-1.74-4.64-1.64-9.48,0.07-13.66 c1.81-4.49,4.93-7.95,8.72-9.36l0.04-0.02c6.08-2.28,12.85,1.14,14.93,6.68c0.5,1.35,0.35,2.11-0.84,2.88 c-1.22,0.68-9.84,4.72-17.97,8.08c3.52,8.99,10.26,10.83,15.19,8.99c2.92-1.09,5.23-3.21,6.92-6.56L409.5,165.67z M388.76,147.79 c-3.06,1.14-5.11,5.02-3.93,11.23c3.78-1.41,7.56-2.83,11.48-4.46c1.22-0.51,1.51-1.05,1.17-1.96c-1.37-3.68-4.94-6.22-8.67-4.83 L388.76,147.79z"></path><path d="M452.92,124.28c-2.22-4.46-5.56-9.32-11.88-8.09c-5.62,1.09-7.5,5.57-6.72,9.58c1,5.16,4.95,7,11.64,8.76 c6.97,1.87,14.26,4.04,15.83,12.11c1.54,7.87-3.96,15.44-14.19,17.44c-3.11,0.61-5.72,0.54-7.75,0.26c-2.02-0.23-3.2-0.63-4.01-0.83 c-0.78-1.36-3.18-7.81-4.33-11.28l2.12-1.09c2.16,4.42,7.32,11.37,14.98,9.88c5.47-1.07,8.02-5.05,6.99-10.31 c-1.03-5.31-5.53-7.04-11.83-8.93c-5.72-1.6-13.61-3.86-15.18-11.93c-1.42-7.32,3.31-14.54,13.08-16.44 c3.56-0.69,7.09-0.49,10.06-0.13c0.81,2.55,1.75,5.48,3.34,10.17L452.92,124.28z"></path><path d="M487.85,157.49l-0.16-1.98c4.24-0.8,4.82-1.35,4.44-6.19l-0.94-12.06c-0.48-6.16-3.25-8.86-7.94-8.5 c-2.75,0.21-5.45,1.75-7.35,4.2l1.36,17.52c0.36,4.73,0.87,5.31,5.24,5.43l0.16,1.98l-16.5,1.28l-0.15-1.98 c4.5-0.81,5.12-1.32,4.74-6.21l-2.75-35.39c-0.36-4.68-0.58-4.92-5.46-5.01l-0.13-1.78c3.52-0.78,8.32-2.28,11.36-3.49l1.94,25 c2.64-2.97,6.41-5.93,10.43-6.24c6.21-0.48,10.88,2.94,11.59,12.06l0.99,12.68c0.38,4.98,0.98,5.3,5.34,5.42l0.16,1.98 L487.85,157.49z"></path><path d="M534.52,150.64c-5.09,6.03-10.59,7.19-13.04,7.12c-9.34-0.28-14.63-7.95-14.38-16.27c0.15-4.96,2.07-9.4,5.23-12.62 c3.37-3.48,7.58-5.49,11.61-5.38l0.05,0.01c6.49,0.19,11.48,5.91,11.3,11.83c-0.04,1.43-0.47,2.08-1.86,2.35 c-1.38,0.16-10.9,0.64-19.69,0.69c-0.14,9.65,5.41,13.91,10.67,14.06c3.11,0.1,6.06-0.99,8.89-3.46L534.52,150.64z M522.06,126.25 c-3.27-0.1-6.62,2.71-7.88,8.91c4.03,0.12,8.06,0.25,12.31,0.22c1.32-0.01,1.79-0.4,1.83-1.38c0.12-3.93-2.23-7.63-6.21-7.75H522.06 z"></path><path d="M578.46,163.69l0.34-1.96c4.25,0.27,5.17,0.07,6.08-5.16l2.06-11.87c0.96-5.54-0.64-8.87-4.97-9.63 c-2.41-0.42-5.38,0.52-8.58,2.29c-0.06,0.92-0.11,1.79-0.34,3.1l-2.46,14.14c-0.8,4.63-0.18,5.2,3.82,6.36l-0.34,1.96l-16.45-2.86 l0.34-1.96c4.56,0.33,5.28,0.09,6.11-4.74l2.16-12.43c0.96-5.53-0.62-8.71-4.89-9.46c-2.82-0.49-5.91,0.9-8.48,2.26l-2.98,17.16 c-0.82,4.73-0.25,5.3,3.1,6.35l-0.34,1.96l-16.11-2.8l0.34-1.96c4.91,0.38,5.7,0.05,6.54-4.78l2.59-14.95 c0.82-4.68,0.64-5.17-3.52-6.57l0.33-1.86c3.31,0.05,7.65-0.18,11.42-1.03l-1.05,6.04c1.79-0.78,3.64-1.86,6.14-2.83 c2.23-0.86,4.18-1.35,6.54-0.94c3.57,0.62,6.4,3.44,7.3,7.49c2.49-1.23,4.84-2.21,6.86-3.11c1.79-0.72,3.85-1.24,5.96-0.88 c5.94,1.03,9.05,5.77,7.76,13.17l-2.41,13.89c-0.85,4.88-0.38,5.17,3.85,6.47l-0.34,1.96L578.46,163.69z"></path><path d="M615.59,147.65c3.63-3.13,7.81-5.98,11.16-4.91c2.63,0.84,3.77,3.3,3.21,5.05c-0.53,1.66-1.97,2.8-3.76,3.04 c-0.99,0.06-1.57-0.29-1.88-0.82c-0.79-1.38-1.48-2.08-2.7-2.47c-1.85-0.59-4.71,0.81-7.47,4.1l-4.06,12.7 c-1.5,4.67-1.29,5.22,4.21,7.46l-0.61,1.9l-17.27-5.52l0.61-1.89c4.52,0.96,5.29,0.72,6.78-3.95l4.71-14.74 c1.45-4.52,1.14-4.94-2.71-6.82l0.52-1.61c3.78,0.57,7.46,0.83,11.64,0.5l-2.53,7.93L615.59,147.65z"></path><path d="M650.9,152.3c8.91,3.86,12.48,13.59,8.89,21.89c-4.79,11.07-15.5,12.66-22.58,9.59c-9.98-4.33-12.55-14.35-9.27-21.89 c4.85-11.2,16.31-12.47,22.92-9.61L650.9,152.3z M649.02,154.21c-4.03-1.75-9.55,0.7-12.9,8.44c-3.76,8.67-2.75,16.63,2.88,19.06 c4.03,1.75,8.82,0.59,12.98-9.01c3.56-8.2,3-15.9-2.86-18.44L649.02,154.21z"></path><path d="M688.73,171.5c8.38,4.9,10.76,14.99,6.19,22.8c-6.08,10.4-16.91,10.7-23.57,6.81c-9.39-5.49-10.74-15.75-6.58-22.85 c6.17-10.54,17.7-10.42,23.91-6.78L688.73,171.5z M686.63,173.17c-3.8-2.22-9.56-0.45-13.82,6.83c-4.78,8.16-4.73,16.17,0.56,19.27 c3.8,2.22,8.69,1.65,13.97-7.39c4.52-7.72,4.89-15.43-0.62-18.66L686.63,173.17z"></path><path d="M705.77,223.3l1.2-1.59c3.74,2.26,4.52,2.07,7.7-2.12l7.34-9.69c3.15-4.15,3.36-7.9-0.34-10.71c-2.28-1.73-5.6-2-8.57-1.88 l-10.43,13.76c-3.08,4.07-2.95,4.56,0.28,7.58l-1.21,1.59l-13.44-10.19l1.21-1.59c4.4,2.57,4.94,2.53,7.97-1.46l9.08-11.97 c2.93-3.87,2.71-4.42-0.04-7.4l1.14-1.5c3.23,1.74,6.95,3.35,10.62,4.33l-3.64,4.8c1.9,0.03,3.91,0.08,6.23,0.24 c2.55,0.2,4.55,0.69,6.34,2.05c4.8,3.64,5.3,9.33,0.82,15.24l-8.43,11.12c-3.08,4.07-2.84,4.51,0.32,7.61l-1.2,1.59L705.77,223.3z"></path><path d="M156.25,491.31c0,9.69-7.85,17.54-17.54,17.54c-9.69,0-17.55-7.85-17.55-17.54c0-9.69,7.85-17.55,17.55-17.55 C148.4,473.76,156.25,481.61,156.25,491.31"></path><path d="M888.31,491.31c0,9.69-7.85,17.54-17.55,17.54c-9.69,0-17.55-7.85-17.55-17.54c0-9.69,7.86-17.55,17.55-17.55 C880.46,473.76,888.31,481.61,888.31,491.31"></path><path d="M335.95,831.58l3.36,2.11c-2.09,2.5-4.05,5.22-5.42,8.22c-4.92,10.75,1.21,17.34,7.78,20.35 c5.99,2.74,11.75,3.07,16.21,1.24c1.89-0.86,3.64-2.12,4.18-3.27c0.53-1.15,0.44-2.68-4.62-7.29l-2.76-2.58 c-4.66-4.27-5.19-7.07-3.32-11.15c1.4-3.07,4.69-6.82,9.67-8.91c4.23-1.68,9.01-1.97,12.66-0.3c3,1.37,5.7,4.25,4.6,9.75l-4.84,2.31 c0.3-3.4-1.04-6.16-3.45-7.25c-5.61-2.56-12.03,1.32-13.65,4.87c-0.68,1.5-0.5,2.81,2.88,5.92l3.97,3.72 c3.97,3.71,6.16,6.84,4.17,11.2c-1.84,4.01-5.38,6.43-7.98,7.62c-6.96,3.16-14.73,2.4-21.31-0.61c-11.2-5.12-14.73-14.81-9.87-25.42 C330.17,837.83,333.12,834.15,335.95,831.58"></path><path d="M377.28,878.72c2.93,0.96,8.34,1,13.71-4.32c1.69-1.73,3.2-4.23,3.53-5.22c0.86-2.63,2.25-9.18,0.48-23.07l5.79-0.62 c0.95,6.77,0.84,17.44-1.41,24.27c-0.75,2.28-2.48,5.49-4.11,7.47c-5.75,7.18-13.55,9.57-19.47,7.63c-4.29-1.41-7.11-4.3-8.02-6.57 l2.33-4.12C372.47,876.83,374.69,877.87,377.28,878.72 M396.4,830.57c0.72-2.2,2.69-3.37,4.8-2.68c2.11,0.7,3,2.8,2.28,5.01 c-0.79,2.42-2.71,3.44-4.89,2.72C396.54,834.95,395.6,832.99,396.4,830.57"></path><path d="M421.01,824.95l5.31,0.93l-7.53,36.22c-1.63,7.84,0.75,10.74,5.41,12.2c2.02,0.5,3.44,1.93,2.88,4.18 c-0.36,1.46-1.45,3.19-4.51,2.43c-8.13-2-11.69-7.04-9.37-18.26L421.01,824.95z"></path><path d="M444.62,878.19c2.89,0.54,3.17,2.5,2.88,4.04c-0.26,1.4-1.4,3.17-4.14,2.65l-18.65-3.5c-2.89-0.54-3.18-2.5-2.87-4.12 c0.25-1.32,1.38-3.09,4.13-2.57L444.62,878.19z"></path><path d="M442.51,881.3c0.17-1.33,1.2-3.16,3.97-2.81l1.42,0.18c5.11,0.66,8.38,0.55,10.24-0.42c0.13-0.44,0.2-0.96,0.25-1.4 c0.61-6.41-1.24-12.83-3.26-17.92l5.46-1.49c1.66,4.51,3.4,13.49,2.49,20.54c-0.25,1.93-0.74,4.05-1.52,5.61 c-2.22,1.52-5.37,3.01-14.89,1.78l-1.07-0.13C442.77,884.89,442.31,882.87,442.51,881.3 M456.44,901.58 c-0.33,2.52-2.02,3.89-4.22,3.61c-2.14-0.27-3.5-2.03-3.17-4.56c0.3-2.38,2.08-3.81,4.21-3.54 C455.47,897.38,456.75,899.2,456.44,901.58"></path><path d="M502.68,853.03c5.62,4.15,8.95,7.79,11.55,11.21c2.61,3.65,4,7.68,4.04,11.56c0.08,9.73-6.97,14.43-13.07,14.47 c-7.59,0.07-12.16-6.48-12.22-13.67c-0.06-6.58,3.41-12.3,7.88-17.88c-0.43-0.36-0.94-0.73-1.44-1.11L502.68,853.03z M513.69,875.54 c-0.04-4.56-3.01-8.73-9.07-13.85c-3.83,4.08-7.09,9.27-7.06,13.38c0.04,5.16,3.87,8.27,8.17,8.24 C511.32,883.27,513.71,878.76,513.69,875.54"></path><path d="M532.44,867.5c1.69,3.04,3.25,6.17,4.49,9.02c2.1,3.85,4.46,4.83,7.6,4.64c2.07-0.13,3.86,0.81,4,3.13 c0.09,1.49-0.44,3.47-3.58,3.66c-1.29,0.08-3.51,0.07-5.16-0.96c0,1.13,0.01,2.55-0.08,3.45c-1.2,11.02-9.31,17.05-15.95,17.46 c-3.5,0.21-7.87-0.72-10.61-3.4l0.35-4.89c3.19,1.75,6.45,2.15,9.81,1.95c5.94-0.36,12.04-6.2,11.88-14.74 c-0.58-3.71-4.93-11.47-7.8-16.24L532.44,867.5z"></path><path d="M565.75,878.04c2.91-0.4,3.8,1.36,4.02,2.92c0.19,1.41-0.33,3.44-3.09,3.82l-18.8,2.6c-2.91,0.4-3.81-1.36-4.03-2.99 c-0.18-1.33,0.33-3.37,3.1-3.75L565.75,878.04z"></path><path d="M566.44,882.22c-0.3-1.23-0.08-3.36,2.7-4.04l4.59-1.12c0.4-1.41,0.79-2.81,1.01-4.02c0.33-2.32-0.29-4.24-1.17-7.26 l-9.84-34.73l5.19-1.72l7.28,26.03c1.66,5.91,2.26,8.69,2.53,10.71c3.54-8.18,9.26-15.26,16.5-17.03c8.21-2,15.44,3.49,17.1,10.33 c0.94,3.85,0.64,8.69-5.01,13.07c-3.4,2.67-9.51,5.77-25.58,9.68l-11,2.67C567.97,885.48,566.8,883.68,566.44,882.22 M581.54,875.17 c9.68-2.35,18.57-5.2,21.57-7.09c3.39-2.14,5.47-4.18,4.66-7.52c-0.8-3.27-5.13-7.15-11.88-5.51c-5.78,1.41-12.51,8.27-16.51,20.64 L581.54,875.17z"></path><path d="M608.3,819.03l4.94-2.14l13.57,34.41c2.93,7.46,6.51,8.57,11.21,7.24c1.96-0.69,3.93-0.27,4.7,1.92 c0.5,1.41,0.53,3.46-2.44,4.5c-7.9,2.79-13.64,0.52-17.85-10.13L608.3,819.03z"></path><path d="M639.35,862.61c-0.72-1.56-0.54-3.54,1.86-4.66l0.78-0.36c7.41-3.44,14.33-7.9,19.94-14.72c2.39-2.84,3.8-4.74,5.4-6.22 c-5.79,0.46-14.53-0.51-20.25,2.15c-2.79,1.3-5.98,3.28-7.98,5.61l-1.68-5.99c1.74-2.21,4.96-4.12,7.17-5.15 c5.98-2.78,12.56-2.55,19.12-2.54c5.75-0.03,7.79-0.4,10.33-1.58l2.4-1.12l1.71,6.05l-1.04,0.49c-2.99,1.38-5.61,4.09-9.28,9.6 c-6.9,10.3-13.16,15.02-23.03,19.61l-0.72,0.33C641.94,865.13,640.14,864.31,639.35,862.61 M645.93,817.97 c-0.98-2.1-0.34-4.3,1.67-5.24c2.02-0.94,4.1-0.01,5.08,2.1c1.07,2.31,0.37,4.37-1.71,5.33C649.03,821.08,647,820.28,645.93,817.97"></path></svg>